<?xml version="1.0" encoding="UTF-8"?>
<svg width="13px" height="16px" viewBox="0 0 13 16" version="1.1" xmlns="http://www.w3.org/2000/svg" xmlns:xlink="http://www.w3.org/1999/xlink">
    <!-- Generator: Sketch 54.1 (76490) - https://sketchapp.com -->
    <title>编组 24</title>
    <desc>Created with Sketch.</desc>
    <g id="页面1" stroke="none" stroke-width="1" fill="none" fill-rule="evenodd">
        <g id="数据明细页" transform="translate(-494.000000, -698.000000)" fill="#595959" fill-rule="nonzero">
            <g id="编组-21" transform="translate(386.000000, 639.000000)">
                <g id="编组-24" transform="translate(108.479167, 59.416667)">
                    <path d="M10.9615385,0 L1.03846154,0 C0.464423077,0 0,0.534570313 0,1.1953125 L0,13.125 C0,13.4553711 0.232211538,12.7226562 0.519230769,12.7226562 C0.80625,12.7226562 1.03846154,13.4553711 1.03846154,13.125 L1.03846154,1.1953125 L10.9615385,1.1953125 L10.9615385,13.6796875 L1.03846154,13.6796875 L1.03846154,12.7832031 L1.03701923,12.7832031 C1.03701923,12.771582 1.03846154,12.7616211 1.03846154,12.75 C1.03846154,12.4196289 0.80625,12.1523438 0.519230769,12.1523438 C0.232211538,12.1523438 0,12.4196289 0,12.75 C0,12.7616211 0,12.771582 0.00144230769,12.7832031 L0,13.6796875 C0,14.3404297 0.464423077,14.875 1.03846154,14.875 L10.9615385,14.875 C11.5355769,14.875 12,14.3404297 12,13.6796875 L12,1.1953125 C12,0.534570313 11.5355769,0 10.9615385,0 Z" id="Shape"></path>
                    <path d="M6.07083333,11.5833333 C5.65751812,11.5833333 5.32083333,11.9200181 5.32083333,12.3333333 C5.32083333,12.7466486 5.65751812,13.0833333 6.07083333,13.0833333 C6.48414855,13.0833333 6.82083333,12.7466486 6.82083333,12.3333333 C6.82083333,11.9200181 6.48414855,11.5833333 6.07083333,11.5833333 Z" id="Path"></path>
                    <path d="M2.4375,2 L9.4375,2 C9.71364237,2 9.9375,2.22385763 9.9375,2.5 L9.9375,10.5 C9.9375,10.7761424 9.71364237,11 9.4375,11 L2.4375,11 C2.16135763,11 1.9375,10.7761424 1.9375,10.5 L1.9375,2.5 C1.9375,2.22385763 2.16135763,2 2.4375,2 Z M2.9375,3 L2.9375,10 L8.9375,10 L8.9375,3 L2.9375,3 Z" id="矩形"></path>
                </g>
            </g>
        </g>
    </g>
</svg>