<?xml version="1.0" encoding="UTF-8"?>
<svg width="16px" height="16px" viewBox="0 0 16 16" version="1.1" xmlns="http://www.w3.org/2000/svg" xmlns:xlink="http://www.w3.org/1999/xlink">
    <!-- Generator: Sketch 54.1 (76490) - https://sketchapp.com -->
    <title>编组 25</title>
    <desc>Created with Sketch.</desc>
    <g id="Page-2" stroke="none" stroke-width="1" fill="none" fill-rule="evenodd">
        <g id="数据明细页" transform="translate(-531.000000, -659.000000)">
            <g id="编组-21" transform="translate(425.000000, 621.000000)">
                <g id="编组-25" transform="translate(106.416667, 37.416667)">
                    <g id="contacts" transform="translate(0.000000, 1.000000)" fill="#595959" fill-rule="nonzero">
                        <path d="M3.1875,10.4257812 C3.1875,10.0954102 2.92021484,9.828125 2.58984375,9.828125 L0.59765625,9.828125 C0.267285156,9.828125 0,10.0954102 0,10.4257812 C0,10.7561523 0.267285156,11.0234375 0.59765625,11.0234375 L2.58984375,11.0234375 C2.92021484,11.0234375 3.1875,10.7561523 3.1875,10.4257812 Z M0.59765625,5.08007812 L2.58984375,5.08007812 C2.92021484,5.08007812 3.1875,4.81279297 3.1875,4.48242188 C3.1875,4.15205078 2.92021484,3.88476562 2.58984375,3.88476562 L0.59765625,3.88476562 C0.267285156,3.88476562 0,4.15205078 0,4.48242188 C0,4.81279297 0.267285156,5.08007812 0.59765625,5.08007812 Z" id="Shape"></path>
                        <path d="M13.6796875,0 L2.2578125,0 C1.59707031,0 1.0625,0.534570313 1.0625,1.1953125 L1.0625,2.125 C1.0625,2.45537109 1.32978516,2.72265625 1.66015625,2.72265625 C1.99052734,2.72265625 2.2578125,2.45537109 2.2578125,2.125 L2.2578125,1.1953125 L13.6796875,1.1953125 L13.6796875,13.6796875 L2.2578125,13.6796875 L2.2578125,12.7832031 L2.25615234,12.7832031 C2.25615234,12.771582 2.2578125,12.7616211 2.2578125,12.75 C2.2578125,12.4196289 1.99052734,12.1523438 1.66015625,12.1523438 C1.32978516,12.1523438 1.0625,12.4196289 1.0625,12.75 C1.0625,12.7616211 1.0625,12.771582 1.06416016,12.7832031 L1.0625,12.7832031 L1.0625,13.6796875 C1.0625,14.3404297 1.59707031,14.875 2.2578125,14.875 L13.6796875,14.875 C14.3404297,14.875 14.875,14.3404297 14.875,13.6796875 L14.875,1.1953125 C14.875,0.534570313 14.3404297,0 13.6796875,0 Z" id="Shape"></path>
                        <path d="M0.59765625,8.05175781 L2.58984375,8.05175781 C2.92021484,8.05175781 3.1875,7.78447266 3.1875,7.45410156 C3.1875,7.12373047 2.92021484,6.85644531 2.58984375,6.85644531 L0.59765625,6.85644531 C0.267285156,6.85644531 0,7.12373047 0,7.45410156 C0,7.78447266 0.267285156,8.05175781 0.59765625,8.05175781 Z" id="Shape"></path>
                    </g>
                    <text id="ID" font-family="PingFangSC-Semibold, PingFang SC" font-size="10" font-weight="500" fill="#666666">
                        <tspan x="3.58333333" y="11.9833333">ID</tspan>
                    </text>
                </g>
            </g>
        </g>
    </g>
</svg>