<?xml version="1.0" encoding="UTF-8"?>
<svg width="12px" height="12px" viewBox="0 0 12 12" version="1.1" xmlns="http://www.w3.org/2000/svg" xmlns:xlink="http://www.w3.org/1999/xlink">
    <!-- Generator: Sketch 60 (88103) - https://sketch.com -->
    <title>minus-square备份</title>
    <desc>Created with Sketch.</desc>
    <g id="控件" stroke="none" stroke-width="1" fill="none" fill-rule="evenodd">
        <g id="导航" transform="translate(-510.000000, -3242.000000)" fill-rule="nonzero">
            <g id="header-左侧树控件导航" transform="translate(60.000000, 2514.000000)">
                <g id="树形控件-连接线" transform="translate(433.000000, 693.000000)">
                    <g id="minus-square备份" transform="translate(16.000000, 34.000000)">
                        <rect id="矩形" fill="#000000" opacity="0" x="0" y="0" width="14" height="14"></rect>
                        <path d="M4.484375,7.4375 L9.515625,7.4375 C9.57578125,7.4375 9.625,7.38828125 9.625,7.328125 L9.625,6.671875 C9.625,6.61171875 9.57578125,6.5625 9.515625,6.5625 L4.484375,6.5625 C4.42421875,6.5625 4.375,6.61171875 4.375,6.671875 L4.375,7.328125 C4.375,7.38828125 4.42421875,7.4375 4.484375,7.4375 Z" id="路径" fill="#999999"></path>
                        <path d="M12.03125,1.53125 L1.96875,1.53125 C1.72675781,1.53125 1.53125,1.72675781 1.53125,1.96875 L1.53125,12.03125 C1.53125,12.2732422 1.72675781,12.46875 1.96875,12.46875 L12.03125,12.46875 C12.2732422,12.46875 12.46875,12.2732422 12.46875,12.03125 L12.46875,1.96875 C12.46875,1.72675781 12.2732422,1.53125 12.03125,1.53125 Z M11.484375,11.484375 L2.515625,11.484375 L2.515625,2.515625 L11.484375,2.515625 L11.484375,11.484375 Z" id="形状" fill="#999999"></path>
                    </g>
                </g>
            </g>
        </g>
    </g>
</svg>